<?xml version="1.0" encoding="utf-8"?>
<!-- Generator: Adobe Illustrator 28.1.0, SVG Export Plug-In . SVG Version: 6.00 Build 0)  -->
<svg version="1.1" id="root" xmlns:svgjs="http://svgjs.com/svgjs" xmlns="http://www.w3.org/2000/svg"
	xmlns:xlink="http://www.w3.org/1999/xlink" x="0px" y="0px" viewBox="0 0 1000 1000"
	style="enable-background:new 0 0 1000 1000;" xml:space="preserve">
	<style type="text/css">
		.st0 {
			fill: #FFFFFF;
		}

		.st1 {
			fill: #010202;
		}

		@media (prefers-color-scheme: dark) {
			.st0 {
				fill: #010202;
			}

			.st1 {
				fill: #FFFFFF;
			}
		}
	</style>
	<path id="bg" class="st0" d="M900,1000H100C44.8,1000,0,955.2,0,900V100C0,44.8,44.8,0,100,0h800c55.2,0,100,44.8,100,100v800
	C1000,955.2,955.2,1000,900,1000z" />
	<g id="text">
		<g>
			<path class="st1" d="M324.1,443.2c0,18.9,0,37.3,0,55c-18.7,0.7-37.4,0.8-56.1,0.3c0-4.4,0-8.8,0-13.2
			c-21.7,11.8-46,12.7-70.3,9.4c-32-4.2-60-20-60-42.6c0-26.7,42.1-26.5,82.9-24.2c19.6,1.4,34.6,4,47.4,8.2
			c0-14-17.8-14.9-36.4-15.9c-18-1-38.5-1.1-64.2-0.1c-6.1-11.2-12.1-22.2-18.2-33.1c28-4,58.4-7,84.3-6.2
			C290.9,382.1,323.6,399.1,324.1,443.2z M268,457.9c-8.9-2.1-21-3.4-37.1-4.6c-25.9-1.9-37.1-1.8-37.1,5.2c0,6,6.5,7.9,20.8,9.3
			c18.9,1.9,39.5-0.7,53.5-5.3C268,461,268,459.4,268,457.9z" />
		</g>
		<g>
			<path class="st1" d="M517.1,341.9c0,45.3,0,91.3,0,137.7c-18.7,2.3-37.4,4.6-56.1,6.8c0-4.8,0-9.6,0-14.5
			c-14.7,13-36.2,20.5-57.9,22.6c-36.2,3.5-76.6-5.9-76.6-51.9c0-46.7,40.4-62.3,76.6-63.3c21.7-0.8,43.2,3.7,57.9,14.4
			c0-17.1,0-34.4,0-51.8C479.7,341.9,498.4,341.9,517.1,341.9z M461,433.1c0-15.8-14.3-18.6-39.2-16.8c-25,1.8-39.2,6.8-39.2,23.4
			c0,16.5,14.3,19.4,39.2,17.1C446.7,454.3,461,448.8,461,433.1z" />
		</g>
		<g>
			<path class="st1" d="M671.7,371.8c0,9.8,0,19.8,0,30.1c-13.1-1.8-23.6-2.3-33.9-1.8c-19.9,1-41.6,3.8-57.7,17.6
			c0,17.8,0,36,0,54.6c-18.7,2-37.4,4.2-56.1,6.4c0-34.8,0-69.2,0-103.1c18.7-0.9,37.4-1.8,56.1-2.6c0,5.3,0,10.6,0,16
			c12.4-13.4,31.5-18.8,54.4-19.4C650.9,369.2,662.4,370.5,671.7,371.8z" />
		</g>
		<g>
			<path class="st1" d="M671.7,416c0-34.9,35.7-48,95.3-46.6c59.6,1.1,95.3,20.3,95.3,59.9c0,39.4-35.7,43.9-95.3,39.2
			C707.4,464.4,671.7,451.8,671.7,416z M806.3,420.5c0-14.4-14.3-19.4-39.2-20.8c-25-1.2-39.2,2-39.2,15.8c0,14,14.3,17.7,39.2,19.4
			C792,436.7,806.3,435.1,806.3,420.5z" />
		</g>
		<g>
			<path class="st1" d="M330.6,613.3c0,36.4-40.4,44.6-76.6,44.8c-21.7,0-43.2-3.8-57.9-13.9c0,4.2,0,8.3,0,12.4
			c-18.7-0.1-37.4-0.1-56.1-0.2c0-46.3,0-92.7,0-139.2c18.7,4.5,37.4,8,56.1,10.5c0,16.2,0,32,0,47.5c14.7-8.8,36.2-11.4,57.9-10.5
			C290.2,566.1,330.6,576.4,330.6,613.3z M274.6,613.7c0-13.3-14.3-16.8-39.2-18c-25-1.4-39.2,0.6-39.2,14.6
			c0,14,14.3,18.2,39.2,18.9C260.3,629.9,274.6,626.8,274.6,613.7z" />
		</g>
		<g>
			<path class="st1" d="M386.7,625.6c0,5.2,7.5,7,41.4,5.8c31.3-1.2,36.7-2.5,36.7-6.8c0-5-5.4-4.2-39-3.5
			c-64.5,1.3-92.7-1.2-92.7-24.7c0-26.6,43.2-33.6,95.1-38.9c51.9-5.3,88.1-4.7,88.1,26.1c-18.7,1.6-37.4,3.3-56.1,4.9
			c0-5.4-9.3-4.5-34.3-2.5c-28.5,2.3-36.7,2.7-36.7,6.4c0,4,5.8,3.6,41.4,2.3c55.1-2.3,90.4-3.1,90.4,25.2
			c0,33.2-37.4,38.3-90.4,38.1c-53-0.3-99.8-3.8-99.8-31C349.3,626.8,368,626.3,386.7,625.6z" />
		</g>
		<g>
			<path class="st1" d="M657.2,584.9c25.5,22,51.1,46.2,76.6,71.1c-24.1,0-48.3,0-72.4,0c-15.7-15.8-31.3-30.8-47-45
			c-11,7.1-22,14.3-32.9,21.2c0,7.9,0,15.9,0,23.9c-18.7,0-37.4,0.1-56.1,0.1c0-48.4,0-96.1,0-142.8c18.7-2.3,37.4-4.5,56.1-6.4
			c0,24.4,0,49.5,0,75.3c22-14.9,43.9-30,65.9-44.5c28.8-1.6,57.6-2.3,86.4-1.5C708.3,551.2,682.8,567.8,657.2,584.9z" />
		</g>
		<g>
			<path class="st1" d="M860.2,516.1c0,9.3,0,18.7,0,28c-39.8-9-79.6-13.4-119.4-14.9c0-9.9,0-19.6,0-29.1
			C780.7,501.7,820.5,506.5,860.2,516.1z M860.2,551.1c0,35,0,70.1,0,105.3c-39.8-0.2-79.6-0.3-119.4-0.4c0-42.3,0-82.1,0-119.4
			C780.7,538,820.5,542.4,860.2,551.1z" />
		</g>
	</g>
</svg>